<svg width="512" height="512" viewBox="0 0 512 512" fill="none" xmlns="http://www.w3.org/2000/svg">
  <rect width="512" height="512" rx="128" fill="#102033"/>
  <path d="M154 190C154 172.327 168.327 158 186 158H326C343.673 158 358 172.327 358 190V322C358 339.673 343.673 354 326 354H186C168.327 354 154 339.673 154 322V190Z" fill="url(#paint0_linear_3_2)"/>
  <path d="M128 178H184M328 178H384M128 334H184M328 334H384" stroke="#F7FBFD" stroke-width="24" stroke-linecap="round"/>
  <path d="M256 118V174M256 338V394" stroke="#F7FBFD" stroke-width="24" stroke-linecap="round"/>
  <path d="M208 244H304M208 282H272" stroke="#102033" stroke-width="22" stroke-linecap="round"/>
  <defs>
    <linearGradient id="paint0_linear_3_2" x1="154" y1="158" x2="358" y2="354" gradientUnits="userSpaceOnUse">
      <stop stop-color="#0F9BD7"/>
      <stop offset="1" stop-color="#F4B35E"/>
    </linearGradient>
  </defs>
</svg>
